# xmcd
#
# Track frame offsets: 
#        150
#        28246
#        54993
#        85958
#        110756
#        141472
#        167977
#        195429
#        222095
#        251098
#        280363
#
# Disc length: 4481 seconds
#
# Revision: 1
# Processed by: cddbd v1.5.2PL0 Copyright (c) Steve Scherf et al.
# Submitted via: ExactAudioCopy v1.0b1
#
DISCID=a9117f0b
DTITLE=Various Artist - Global Communication - Back In The Box (Unmixed) CD2
DYEAR=2011
DGENRE=Techno, Downtempo, Ambient
TTITLE0=Speedy J - De Orbit (Original Mix)
TTITLE1=Balil - Whirling Of The Spirits
TTITLE2=As One - Amalia
TTITLE3=Model 500 - Infoworld
TTITLE4=Psyche - Elements
TTITLE5=Reel By Real - Surkit
TTITLE6=Yennek - Serena X (Inner Zone Remix)
TTITLE7=Balil - Nort Route
TTITLE8=Flux - True Feelings
TTITLE9=Stasis - Point Of No Return
TTITLE10=Robert Leiner - Aqua Viva
EXTD=
EXTT0=
EXTT1=
EXTT2=
EXTT3=
EXTT4=
EXTT5=
EXTT6=
EXTT7=
EXTT8=
EXTT9=
EXTT10=
PLAYORDER=
